<svg xmlns="http://www.w3.org/2000/svg" viewBox="0 0 124.396 22.876">
  <defs>
    <style>
      .cls-1 {
        fill: #434a54;
        fill-rule: evenodd;
      }
    </style>
  </defs>
  <path id="logo-word-bl" class="cls-1" d="M59.25,29.569h-3.7V7.74h3.7a10.915,10.915,0,1,1,0,21.829Zm.1-19.276h-1.08V27.016h1.08a8.269,8.269,0,0,0,8.215-8.345A8.256,8.256,0,0,0,59.348,10.292ZM90.9,29.569H88.05l-2.095-4.582H75.417l-2.095,4.582H70.476L80.621,7.249h.1Zm-6.087-7.1-4.124-9h-.065l-4.058,9,.065.065h8.116ZM107.948,7.838,99.636,22.532v7.036H96.887V22.532L88.574,7.838v-.1h2.978l6.676,11.749h.1L104.97,7.74h2.978Zm2.618-.1h4.32a8.3,8.3,0,1,1,0,16.593h-1.6v5.236h-2.716Zm10.015,8.313a5.742,5.742,0,0,0-5.662-5.825,6.807,6.807,0,0,0-1.636.229V21.681a5.521,5.521,0,0,0,1.636.262A5.758,5.758,0,0,0,120.581,16.052Zm22.844,13.516h-2.847l-2.095-4.582H127.945l-2.095,4.582H123l10.145-22.32h.1Zm-6.087-7.1-4.124-9h-.065l-4.058,9,.065.065h8.116Zm22.713,3.5a8.564,8.564,0,0,1-4.909,1.538,8.853,8.853,0,1,1,4.975-16.135l1.407-2.258a11.474,11.474,0,1,0-6.349,20.978,11.683,11.683,0,0,0,6.349-1.9Zm19.9,2.258L169.8,18.049l8.9-8.9-1.833-1.865L168,16.151l-.065-.033V7.74h-2.716V29.569h2.716V20.012L168,19.98l10.08,10.113Z" transform="translate(-55.552 -7.216)"/>
</svg>
