<svg id="logo-sm-bl" xmlns="http://www.w3.org/2000/svg" viewBox="0 0 30 30">
  <defs>
    <style>
      .cls-1 {
        fill: #434a54;
        fill-rule: evenodd;
      }
    </style>
  </defs>
  <path id="Fill-26" class="cls-1" d="M25.636,13.179a.454.454,0,0,1-.456.457H12.454A.454.454,0,0,1,12,13.179V.457A.455.455,0,0,1,12.454,0H25.18a.456.456,0,0,1,.456.457Z" transform="translate(-3.818)"/>
  <path id="Fill-26-Copy" class="cls-1" d="M13.636,37.179a.454.454,0,0,1-.456.457H.454A.454.454,0,0,1,0,37.179V24.457A.455.455,0,0,1,.454,24H13.18a.456.456,0,0,1,.456.457Z" transform="translate(0 -7.636)"/>
  <path id="Fill-26-Copy-2" class="cls-1" d="M37.636,37.179a.454.454,0,0,1-.456.457H24.454A.454.454,0,0,1,24,37.179V24.457A.455.455,0,0,1,24.454,24H37.18a.456.456,0,0,1,.456.457Z" transform="translate(-7.636 -7.636)"/>
</svg>
